<?xml version="1.0" encoding="utf-8"?>
<!-- Generator: Adobe Illustrator 19.0.0, SVG Export Plug-In . SVG Version: 6.00 Build 0)  -->
<svg version="1.1" baseProfile="tiny" id="图层_1"
	 xmlns="http://www.w3.org/2000/svg" xmlns:xlink="http://www.w3.org/1999/xlink" x="0px" y="0px" viewBox="0 0 100 100"
	 xml:space="preserve">
<g id="XMLID_4168_">
	<path id="XMLID_4171_" fill="#999999" d="M50,11.8c13.1,0,24.6,6.6,31.5,16.7l3.1-0.6c-7.3-11.4-20.1-19-34.6-19
		c-19.6,0-36,13.8-40.1,32.2l3.1-0.5C17.2,24.1,32.2,11.8,50,11.8z"/>
	<path id="XMLID_4253_" fill="#999999" d="M50,88.2c-13.1,0-24.6-6.6-31.5-16.7l-3.1,0.6c7.3,11.4,20.1,19,34.6,19
		c19.6,0,36-13.8,40.1-32.2L87,59.4C82.8,75.9,67.8,88.2,50,88.2z"/>
	
		<rect id="XMLID_4254_" x="-0.6" y="36.3" transform="matrix(0.9848 -0.1736 0.1736 0.9848 -5.7421 8.8577)" fill="#999999" width="96.6" height="1.9"/>
	
		<rect id="XMLID_4256_" x="3.9" y="61.8" transform="matrix(0.9848 -0.1736 0.1736 0.9848 -10.1034 10.0263)" fill="#999999" width="96.6" height="1.9"/>
	<polygon id="XMLID_4257_" fill="#999999" points="9,50.8 2.8,51.9 5.8,68.8 33.4,63.9 33,61.4 11.5,65.2 10.1,57.1 30.6,53.5 
		28.7,42.7 1.3,47.6 1.7,50.1 23,46.4 24,52.1 9.7,54.6 	"/>
	<path id="XMLID_4260_" fill="#999999" d="M84.5,39.1l-0.3-1.6L95,35.5l-0.4-2.3l-10.8,1.9l-0.4-2.2l-6,1.1l0.4,2.2l-11.2,2l0.4,2.3
		l11.2-2l0.3,1.6l-10,1.8l1.4,7.9l10-1.8l1.3,7.6l6-1.1L85.9,47l9.8-1.7l-1.4-7.9L84.5,39.1z M75.5,46.5l-0.6-3.2l4-0.7l0.6,3.2
		L75.5,46.5z M85.5,44.7l-0.6-3.2l4-0.7l0.6,3.2L85.5,44.7z"/>
	<polygon id="XMLID_4262_" fill="#999999" points="75.9,56.3 78.8,49.5 72.4,50.7 69.3,57.5 	"/>
	<polygon id="XMLID_4263_" fill="#999999" points="87.2,48.1 92.4,53.4 98.7,52.3 93.6,46.9 	"/>
	<path id="XMLID_4266_" fill="#999999" d="M65,52.2L65,52.2l-0.4-2.5l-11.7,2.1l0,0l-5.5,1l0.4,2.5l0,0l1.1,6.1l0.7-0.1l0,0
		l15.7-2.8l0,0l0.8-0.1L65,52.2z M59.4,53.2l0.6,3.6l-6.2,1.1l-0.6-3.6L59.4,53.2z"/>
	<polygon id="XMLID_4267_" fill="#999999" points="63.7,45.2 58.1,46.2 57.5,43.1 63.5,42 63.1,39.5 57.1,40.5 56.6,37.7 50.4,38.7 
		50.9,41.6 44.9,42.7 45.3,45.2 51.3,44.2 51.9,47.3 46.2,48.3 46.6,50.8 64.2,47.7 	"/>
	<polygon id="XMLID_4268_" fill="#999999" points="47.3,60 46.8,57.5 36.6,61 37,63.5 	"/>
	<polygon id="XMLID_4269_" fill="#999999" points="36.6,58.8 46.2,55.7 45.8,53.5 42.2,54.7 45,48.8 44.6,46.4 41.6,47 45.8,39.9 
		46,39.5 39.2,40.7 34.7,48.2 35.1,50.6 39.5,49.8 36.2,56.5 	"/>
	<polygon id="XMLID_4270_" fill="#999999" points="46.8,23.8 44.9,21.2 44,24.3 41,25.3 43.6,27.1 43.7,30.3 46.2,28.3 49.2,29.3 
		48.1,26.3 50,23.7 	"/>
	<polygon id="XMLID_4271_" fill="#999999" points="32.2,35.2 31.2,33.8 30.7,35.4 29.1,36 30.5,36.9 30.5,38.6 31.8,37.6 33.4,38.1 
		32.9,36.5 33.8,35.1 	"/>
	<polygon id="XMLID_4272_" fill="#999999" points="63.2,29.7 62.2,28.4 61.7,30 60.1,30.5 61.5,31.4 61.5,33.1 62.8,32.1 64.4,32.6 
		63.9,31 64.8,29.7 	"/>
	<polygon id="XMLID_4273_" fill="#999999" points="55.1,78.8 56,75.7 59,74.7 56.4,72.9 56.3,69.7 53.8,71.7 50.8,70.7 51.9,73.7 
		50,76.3 53.2,76.2 	"/>
	<polygon id="XMLID_4274_" fill="#999999" points="38.3,70 39.9,69.5 38.5,68.6 38.5,66.9 37.2,67.9 35.6,67.4 36.1,69 35.2,70.3 
		36.8,70.3 37.8,71.6 	"/>
	<polygon id="XMLID_4275_" fill="#999999" points="67.8,64.8 68.8,66.2 69.3,64.6 70.9,64 69.5,63.1 69.5,61.4 68.2,62.4 66.6,61.9 
		67.1,63.5 66.2,64.9 	"/>
	<path id="XMLID_4278_" fill="#999999" d="M25.7,30.5l0.8-1.1l-4.8-1.7l-1.4,1.9l3.1,4.1l0.8-1.1l-0.7-1l1.1-1.5L25.7,30.5z
		 M23,31.1l-1.6-1.9l0.1-0.2l2.3,0.9L23,31.1z"/>
	<polygon id="XMLID_4279_" fill="#999999" points="29,26.9 28.8,26.3 27.1,28 24.1,25 23.2,25.9 26.7,29.3 	"/>
	<path id="XMLID_4282_" fill="#999999" d="M30.4,25.8l-1.6-2l0.6,0.2l0.3-0.2l2.1,1l1.1-0.8l-2.1-1l0.5-0.4l-1.7-2.3l-1.8,1.4l0,0.7
		l-0.3-0.4l-1,0.8l3,3.9L30.4,25.8z M27.8,22.4l1.1-0.9l1,1.2l-1.1,0.9L27.8,22.4z"/>
	<polygon id="XMLID_4283_" fill="#999999" points="36.2,21.3 33.8,22.6 33.1,21.3 35.3,20 35,19.5 32.8,20.7 32.1,19.5 34.4,18.2 
		34.1,17.6 30.6,19.6 33,23.8 36.3,22 	"/>
	<path id="XMLID_4286_" fill="#999999" d="M40.3,20.4l1.3-0.5l-3.1-4.1l-2.2,0.8l0.3,5.1l1.3-0.5l-0.1-1.2l1.8-0.7L40.3,20.4z
		 M37.7,19.4l-0.2-2.5l0.2-0.1l1.5,2L37.7,19.4z"/>
	<path id="XMLID_4289_" fill="#999999" d="M46.1,19l-1-4.8l-2.7,0.5l-0.3,0.6L42,14.9l-1.2,0.2l1,4.8l1.2-0.2l-0.1-0.5l0.5,0.5
		L46.1,19z M42.8,19l-0.7-3.5l1.9-0.4l0.7,3.5L42.8,19z"/>
	<polygon id="XMLID_4290_" fill="#999999" points="49.5,14 48.6,16.1 47.4,14.1 46,14.1 48,17.3 48.1,18.9 49.3,18.9 49.2,17.3 
		50.9,13.9 	"/>
	<path id="XMLID_4293_" fill="#999999" d="M57.4,19.7l0.8-4.8l-4.4-0.7L53,18.9L57.4,19.7z M54.9,15l1.8,0.3l-0.6,3.5l-1.8-0.3
		L54.9,15z"/>
	<polygon id="XMLID_4294_" fill="#999999" points="59.1,15.1 59.1,20.2 60.5,20.7 63.7,16.6 62.5,16.2 60.3,19.2 60.3,15.5 	"/>
	<polygon id="XMLID_4295_" fill="#999999" points="66.2,22.6 63.7,21.3 64.4,19.9 66.6,21.1 66.9,20.5 64.7,19.4 65.3,18.1 
		67.7,19.3 68,18.7 64.5,17 62.3,21.3 65.6,23 	"/>
	<path id="XMLID_4298_" fill="#999999" d="M69.6,25.7l0.3-2.3l0.6,0.4l1.6-2.3l-1.9-1.3l-0.6,0.2l0.3-0.4l-1.1-0.7l-2.8,4l1.1,0.7
		l1.5-2.1l-0.1,0.6l0.3,0.2L68.5,25L69.6,25.7z M68.7,21.8l0.9-1.3l1.2,0.8l-0.9,1.3L68.7,21.8z"/>
	<path id="XMLID_4301_" fill="#999999" d="M33.3,82.1l1.3-4.9l-2-1.2l-3.8,3.4L30,80l0.9-0.8l1.6,1l-0.3,1.2L33.3,82.1z M31.4,78.7
		l1.8-1.7l0.2,0.1l-0.7,2.4L31.4,78.7z"/>
	<polygon id="XMLID_4302_" fill="#999999" points="37.7,83.2 35.5,82.3 37.2,78.4 36,77.9 34.1,82.4 37.2,83.7 	"/>
	<path id="XMLID_4305_" fill="#999999" d="M43.3,80.5l-2.2-0.6l-0.5,0.4l0.1-0.5l-1.2-0.3l-1.3,4.7l1.2,0.4l0.7-2.5l0.1,0.6l0.3,0.1
		l0.5,2.2l1.3,0.4l-0.5-2.2l0.7,0.2L43.3,80.5z M41.5,82.3l-1.4-0.4l0.4-1.5l1.4,0.4L41.5,82.3z"/>
	<polygon id="XMLID_4306_" fill="#999999" points="47.6,81.8 47.7,81.1 43.8,80.6 43.2,85.4 46.9,86 47.2,85.3 44.5,85 44.7,83.5 
		47.2,83.8 47.3,83.2 44.8,82.8 45,81.4 	"/>
	<path id="XMLID_4309_" fill="#999999" d="M47.9,86.1l1.3,0l0.3-1.2l1.9,0l0.4,1.2l1.3,0l-1.6-4.9l-2.3,0L47.9,86.1z M50.4,81.8
		l0.2,0l0.7,2.4l-1.5,0L50.4,81.8z"/>
	<path id="XMLID_4312_" fill="#999999" d="M60.9,79.2l-0.3,2.3l-1.6-1.6l-1.4,0.5l0,0l-2.6,0.4l-0.4,0.6l-0.1-0.5L53.2,81l0.8,4.8
		l1.3-0.2l-0.1-0.5l0.5,0.5l2.7-0.4l-0.8-4.8l2.7,2.5l0.5,1.5l1.2-0.4l-0.5-1.5l0.7-3.7L60.9,79.2z M55.2,85l-0.6-3.5l1.9-0.3
		l0.6,3.5L55.2,85z"/>
	<path id="XMLID_4315_" fill="#999999" d="M66.3,82.2l3.8-2.2l-2.5-4.2L63.8,78L66.3,82.2z M68.7,80.1L67.1,81l-1.8-3.1l1.6-0.9
		L68.7,80.1z"/>
	<polygon id="XMLID_4316_" fill="#999999" points="73.2,77.6 71.5,72.7 70.5,73.5 71.8,77 68.7,74.9 67.7,75.8 72.1,78.5 	"/>
	<polygon id="XMLID_4317_" fill="#999999" points="77.7,73.1 77.4,72.5 75.5,74.5 74.4,73.5 76.1,71.6 75.6,71.2 73.9,73.1 
		72.9,72.1 74.7,70.2 74.2,69.7 71.5,72.6 75.1,75.9 	"/>
	<path id="XMLID_4320_" fill="#999999" d="M77.8,69.6l2.3,0.3l0.8-1.1l-2.3-0.3l0.4-0.6l-2.3-1.6l-1.3,1.9l0.2,0.6l-0.4-0.3
		l-0.7,1.1l4,2.8l0.7-1.1L77,69.8l0.6,0.1L77.8,69.6z M76.9,69.7l-1.3-0.9l0.8-1.2l1.3,0.9L76.9,69.7z"/>
</g>
</svg>
